<svg width="128" height="128" viewBox="0 0 128 128" fill="none" xmlns="http://www.w3.org/2000/svg">
<rect width="128" height="128" rx="16" fill="#397DA4"/>
<path d="M63.9998 10.6665C68.2433 10.6665 72.313 12.3522 75.3135 15.3528C78.3141 18.3534 79.9998 22.423 79.9998 26.6665V58.6665C79.9998 62.91 78.3141 66.9796 75.3135 69.9802C72.313 72.9808 68.2433 74.6665 63.9998 74.6665C59.7564 74.6665 55.6867 72.9808 52.6861 69.9802C49.6855 66.9796 47.9998 62.91 47.9998 58.6665V26.6665C47.9998 22.423 49.6855 18.3534 52.6861 15.3528C55.6867 12.3522 59.7564 10.6665 63.9998 10.6665ZM101.333 58.6665C101.333 77.4932 87.4132 93.0132 69.3332 95.6265V112H58.6665V95.6265C40.5865 93.0132 26.6665 77.4932 26.6665 58.6665H37.3332C37.3332 65.7389 40.1427 72.5217 45.1437 77.5227C50.1446 82.5237 56.9274 85.3332 63.9998 85.3332C71.0723 85.3332 77.855 82.5237 82.856 77.5227C87.857 72.5217 90.6665 65.7389 90.6665 58.6665H101.333Z" fill="#BDEAF3"/>
</svg>
